<svg width="258" height="42" viewBox="0 0 258 42" fill="none" xmlns="http://www.w3.org/2000/svg">
<path d="M75.8484 29.6454L66.3778 7.22402H61.9605L52.5234 29.6454H56.9408L59.116 24.2576H69.122L71.3306 29.6454H75.8484ZM64.0688 11.976L67.616 20.6099H60.5884L64.0688 11.976Z" fill="#022994"/>
<path d="M78.5133 29.6454H82.529V7.22402H78.5133V29.6454Z" fill="#022994"/>
<path d="M112.941 20.8442C112.171 23.9229 109.561 26.1651 105.88 26.1651C101.328 26.1651 98.3835 22.6178 98.3835 18.4347C98.3835 14.2851 101.328 10.7044 105.88 10.6709C109.393 10.6374 112.004 12.8461 112.874 15.8245H117.057C116.086 10.6374 111.803 6.75551 105.846 6.75551C98.9189 6.75551 94.3343 12.0764 94.3343 18.4682C94.3343 24.8265 98.9189 30.1139 105.846 30.1139C111.937 30.1139 116.22 26.1316 117.124 20.8442H112.941Z" fill="#022994"/>
<path d="M129.537 12.5449C127.295 12.5449 125.421 13.5489 124.249 15.1552H124.082V5.55078H120.234V29.6454H124.082V21.1788C124.082 18.3009 126.023 16.3264 128.566 16.3264C130.942 16.3264 132.515 18.0666 132.515 20.6769V29.6454H136.364V20.0745C136.364 15.3894 133.686 12.5449 129.537 12.5449Z" fill="#022994"/>
<path d="M153.121 15.3225H152.954C151.849 13.7162 149.875 12.5784 147.298 12.5449C142.513 12.5115 139.099 16.1926 139.099 21.3461C139.099 26.5667 142.613 30.1808 147.298 30.1139C149.909 30.1139 151.849 28.9092 152.954 27.2359H153.121V29.6454H156.936V13.0134H153.121V15.3225ZM148.068 26.4328C145.023 26.4328 142.981 24.1907 142.981 21.3127C142.981 18.4347 145.023 16.1926 148.068 16.1926C151.08 16.1926 153.088 18.4682 153.088 21.3127C153.088 24.1237 151.08 26.4328 148.068 26.4328Z" fill="#022994"/>
<path d="M160.917 25.0942C160.917 27.9722 162.59 29.6454 165.602 29.6454H168.714V25.9308H166.271C165.334 25.9308 164.765 25.3954 164.765 24.4584V5.55078H160.917V25.0942Z" fill="#022994"/>
<path d="M171.277 25.0942C171.277 27.9722 172.95 29.6454 175.962 29.6454H179.074V25.9308H176.631C175.694 25.9308 175.125 25.3954 175.125 24.4584V5.55078H171.277V25.0942Z" fill="#022994"/>
<path d="M188.878 12.5449C183.758 12.5449 180.244 16.4268 180.244 21.3461C180.244 26.0647 183.423 30.1139 188.878 30.1139C192.793 30.1139 196.039 28.0391 197.11 24.4249H193.128C192.459 25.7635 190.819 26.6001 188.945 26.5667C186.335 26.4997 184.528 24.793 184.226 22.6513H197.378C197.88 16.9288 194.4 12.5449 188.878 12.5449ZM188.811 16.0922C191.154 16.0922 192.894 17.4308 193.396 19.5056H184.293C184.762 17.4642 186.502 16.0922 188.811 16.0922Z" fill="#022994"/>
<path d="M209.637 12.5449C207.394 12.5449 205.453 13.5489 204.249 15.1552H204.115V13.0134H200.333V29.6454H204.182V21.1788C204.182 18.3009 206.123 16.3264 208.666 16.3264C211.042 16.3264 212.615 18.0666 212.615 20.6769V29.6454H216.463V20.0745C216.463 15.3894 213.786 12.5449 209.637 12.5449Z" fill="#022994"/>
<path d="M233.221 15.3225H233.054C231.949 13.7162 229.975 12.5784 227.398 12.5449C222.613 12.5115 219.199 16.1926 219.199 21.3461C219.199 26.5667 222.713 30.1808 227.398 30.1139C230.008 30.1139 231.949 28.9092 233.054 27.2359H233.221V28.106L233.187 30.6159C233.187 31.8206 232.451 32.5234 231.213 32.5234H221.341V36.3384H231.916C235.162 36.3384 237.036 34.5313 237.036 31.2852V13.0134H233.221V15.3225ZM228.168 26.4328C225.122 26.4328 223.081 24.1907 223.081 21.3127C223.081 18.4347 225.122 16.1926 228.168 16.1926C231.18 16.1926 233.187 18.4682 233.187 21.3127C233.187 24.1237 231.18 26.4328 228.168 26.4328Z" fill="#022994"/>
<path d="M248.454 12.5449C243.334 12.5449 239.82 16.4268 239.82 21.3461C239.82 26.0647 243 30.1139 248.454 30.1139C252.37 30.1139 255.616 28.0391 256.687 24.4249H252.704C252.035 25.7635 250.395 26.6001 248.521 26.5667C245.911 26.4997 244.104 24.793 243.803 22.6513H256.954C257.456 16.9288 253.976 12.5449 248.454 12.5449ZM248.387 16.0922C250.73 16.0922 252.47 17.4308 252.972 19.5056H243.87C244.338 17.4642 246.078 16.0922 248.387 16.0922Z" fill="#022994"/>
<path d="M8.85646 4.88487C8.86531 4.82783 8.88707 4.77519 8.9186 4.72996C8.95645 4.67537 9.00715 4.63348 9.06441 4.60633C9.12043 4.57978 9.18273 4.56733 9.24539 4.57092L15.1574 4.71807C15.3627 4.72318 15.525 4.89374 15.5199 5.09904C15.5148 5.30433 15.3442 5.46661 15.1389 5.4615L10.8517 5.35479L13.4708 6.69023C13.6538 6.78351 13.7265 7.00744 13.6332 7.19039C13.5844 7.28601 13.5 7.35151 13.4044 7.37894L8.64607 8.85354L12.4024 9.04259C12.5257 9.04607 12.6446 9.11079 12.7122 9.22474C12.8169 9.40139 12.7586 9.62948 12.5819 9.7342L7.96781 12.4692L12.4694 11.5664C12.4972 11.56 12.5256 11.5568 12.554 11.5568C12.5896 11.5569 12.6244 11.562 12.6576 11.5717C12.6887 11.5808 12.7188 11.594 12.7472 11.6114C12.8326 11.6636 12.8968 11.7498 12.918 11.8556C12.9436 11.9832 12.9005 12.1087 12.8143 12.1937L8.83026 16.4312L13.722 13.9984C13.817 13.9484 13.9329 13.9397 14.0396 13.9846C14.2289 14.0643 14.3177 14.2823 14.238 14.4716L11.8011 20.2603L16.127 15.9836C16.1954 15.9095 16.2932 15.864 16.3994 15.8639C16.4958 15.8636 16.5921 15.9004 16.6652 15.9744C16.7517 16.0619 16.7859 16.1815 16.768 16.2944L16.1368 22.4051L18.9777 16.9671C19.0441 16.8401 19.1735 16.7674 19.3076 16.7674C19.483 16.7668 19.6396 16.891 19.6736 17.0696L20.8234 23.0978L21.9713 17.0749C21.9808 17.0212 22.0019 16.9699 22.0336 16.925C22.0645 16.8811 22.1053 16.8433 22.1549 16.8154C22.177 16.8029 22.2003 16.7927 22.2246 16.7849C22.2818 16.7667 22.3441 16.762 22.4072 16.774L22.4109 16.7747C22.5133 16.7953 22.5976 16.8563 22.6502 16.938C22.6572 16.949 22.6638 16.9603 22.6697 16.972L25.508 22.4051L24.8753 16.2794C24.8735 16.2646 24.8727 16.2496 24.8727 16.2347C24.873 16.1406 24.9087 16.0466 24.9801 15.9744C25.0531 15.9005 25.1494 15.8637 25.2457 15.8639C25.2832 15.864 25.3197 15.8697 25.3542 15.8804C25.4065 15.8965 25.4559 15.9243 25.4983 15.964C25.5016 15.9671 25.5049 15.9702 25.508 15.9734L29.8455 20.2606L27.4107 14.4793C27.4008 14.457 27.393 14.4339 27.3876 14.4102C27.3813 14.3829 27.3783 14.3554 27.3782 14.3281C27.378 14.1828 27.4635 14.0446 27.6058 13.9846C27.7134 13.9394 27.8302 13.9485 27.9257 13.9995L32.815 16.4312L28.8351 12.1981C28.7459 12.113 28.7009 11.9855 28.7269 11.8556C28.7623 11.679 28.9175 11.5568 29.0911 11.5568C29.1204 11.5568 29.1497 11.5601 29.1783 11.5669L33.6792 12.4696L29.0721 9.73824C29.0543 9.72818 29.0374 9.71667 29.0215 9.70389C28.995 9.68255 28.972 9.65806 28.9528 9.6313C28.9124 9.5752 28.8872 9.50721 28.8835 9.43304C28.8825 9.41382 28.883 9.39486 28.8849 9.37627C28.8966 9.26077 28.9616 9.15987 29.056 9.10007C29.0997 9.07235 29.1497 9.05346 29.2037 9.04603C29.2166 9.04422 29.2297 9.04309 29.2428 9.04265L32.9993 8.85356L28.2348 7.37679C28.1157 7.33986 28.0285 7.24854 27.9919 7.13857C27.9833 7.11257 27.9777 7.08609 27.9749 7.05959C27.9721 7.03171 27.9724 7.0038 27.9758 6.97638C27.9904 6.85791 28.0616 6.74857 28.176 6.69025L30.7944 5.35477L26.5066 5.4615C26.3013 5.46661 26.1307 5.30433 26.1256 5.09904C26.1205 4.89374 26.2828 4.72318 26.4881 4.71807L32.4003 4.57091C32.543 4.56279 32.6838 4.63779 32.7529 4.77328C32.7903 4.84664 32.8011 4.92659 32.7887 5.00207C32.7739 5.09253 32.7259 5.17656 32.6509 5.23511C32.6293 5.252 32.6059 5.26658 32.5808 5.27845L29.3285 6.93722L35.2106 8.7604C35.3619 8.80129 35.4765 8.93574 35.4848 9.10074C35.4942 9.28798 35.3635 9.44982 35.1846 9.48445C35.1641 9.48847 35.1432 9.49079 35.1221 9.4913L30.5058 9.72368L35.9363 12.9432C36.113 13.048 36.1713 13.2761 36.0665 13.4527C36.0151 13.5395 35.9339 13.5977 35.8437 13.622C35.7896 13.6369 35.7313 13.6396 35.6725 13.6279L30.1607 12.5224L34.7699 17.4248C34.7953 17.4501 34.8167 17.4789 34.8335 17.5098C34.8538 17.5469 34.8673 17.5866 34.874 17.6272C34.8819 17.6749 34.8807 17.7244 34.8692 17.7729C34.8532 17.8419 34.8173 17.907 34.7619 17.9591C34.642 18.0717 34.4672 18.0895 34.3301 18.0153L28.4818 15.1067L31.2563 21.6946C31.2879 21.7695 31.293 21.8488 31.2761 21.9223C31.2632 21.9786 31.2371 22.0324 31.1978 22.0789C31.1861 22.0929 31.1732 22.106 31.1594 22.1182C31.014 22.2464 30.7921 22.2419 30.6522 22.1036L25.721 17.2295L26.4466 24.2543C26.4483 24.2687 26.4491 24.283 26.4491 24.2974C26.4492 24.4314 26.3765 24.561 26.2494 24.6273C26.0674 24.7224 25.8428 24.6519 25.7477 24.4699L22.5027 18.2586L21.1927 25.1328C21.1724 25.2876 21.0553 25.419 20.8935 25.4498L20.8918 25.4502C20.8712 25.454 20.8501 25.4562 20.8287 25.4565C20.8223 25.4566 20.8158 25.4565 20.8093 25.4562C20.794 25.4556 20.7786 25.4541 20.7632 25.4515C20.76 25.451 20.7569 25.4505 20.7537 25.4499C20.5919 25.419 20.4748 25.2877 20.4545 25.1329L19.143 18.2568L15.8972 24.4699C15.8021 24.6519 15.5774 24.7224 15.3954 24.6273C15.3225 24.5892 15.2674 24.5303 15.2338 24.4617C15.2093 24.412 15.1957 24.3564 15.1957 24.2982C15.1956 24.2836 15.1965 24.2689 15.1982 24.2542L15.9237 17.2303L10.9986 22.0994C10.9913 22.1069 10.9836 22.114 10.9757 22.1208C10.8289 22.2476 10.6069 22.2405 10.4686 22.1006C10.3967 22.0278 10.3609 21.933 10.3611 21.8382C10.3612 21.825 10.3619 21.8118 10.3633 21.7985C10.3638 21.7945 10.3643 21.7905 10.3649 21.7865L10.3656 21.7819L10.3663 21.7772C10.3716 21.746 10.3808 21.7154 10.394 21.6861L13.1639 15.1065L7.31438 18.0157C7.17738 18.0894 7.00302 18.0715 6.88343 17.9591C6.81161 17.8915 6.77259 17.8022 6.76699 17.711C6.76624 17.6988 6.7661 17.6866 6.76655 17.6745C6.76903 17.6079 6.78946 17.5429 6.82541 17.4869C6.8394 17.4651 6.85575 17.4446 6.8743 17.4259L11.4846 12.5223L5.97236 13.6279C5.7847 13.6655 5.60172 13.5547 5.54502 13.3764C5.53304 13.3391 5.52727 13.3008 5.52734 13.2627C5.52736 13.2262 5.53278 13.1905 5.54297 13.1566C5.56878 13.0702 5.62592 12.9928 5.70964 12.9432L11.1411 9.72372L6.52333 9.49131C6.49504 9.49067 6.46717 9.48678 6.44022 9.4799C6.3849 9.46592 6.33473 9.43962 6.29263 9.40422C6.26239 9.37887 6.23597 9.34853 6.2148 9.31395C6.17987 9.25716 6.15985 9.19046 6.15989 9.11955C6.15989 9.10896 6.16034 9.09843 6.16123 9.08797C6.17458 8.92963 6.28612 8.80152 6.43241 8.76101L12.3178 6.9371L9.06648 5.27931C8.93914 5.21975 8.85163 5.0903 8.85204 4.94148C8.85206 4.92265 8.85352 4.90372 8.85646 4.88487Z" fill="url(#paint0_radial_164_487)"/>
<path d="M20.8277 2.11533e-05C20.9791 0.00164129 21.1203 0.09622 21.174 0.247073L22.0549 2.71799L24.4747 0.520508C24.5317 0.468736 24.6004 0.437971 24.6713 0.427754C24.693 0.424621 24.715 0.423421 24.7368 0.424139C24.8098 0.426536 24.882 0.450296 24.9433 0.494927C24.972 0.515806 24.9974 0.540607 25.0189 0.568405C25.0416 0.597774 25.0593 0.629662 25.0721 0.662946C25.095 0.722788 25.1028 0.789356 25.0915 0.857146L24.6841 3.29335L28.3949 1.79779C28.5853 1.72102 28.802 1.8132 28.8787 2.00367C28.9285 2.12722 28.9072 2.26178 28.8342 2.36203L26.8037 5.3008C26.687 5.46976 26.4554 5.51209 26.2864 5.39536C26.1175 5.27863 26.0751 5.04703 26.1919 4.87808L27.5235 2.95078L24.3559 4.22743C24.2923 4.25508 24.2202 4.26526 24.1467 4.25297C23.9648 4.22256 23.836 4.06494 23.8361 3.88644C23.8361 3.86418 23.8381 3.8421 23.842 3.82045L24.1812 1.79154L22.1448 3.64092C22.1356 3.64945 22.1259 3.65754 22.1158 3.66516C22.0604 3.70701 21.9964 3.73118 21.931 3.73802C21.8958 3.74177 21.8607 3.74037 21.8267 3.73429C21.7649 3.72332 21.7055 3.69669 21.6549 3.6547C21.6207 3.62644 21.5912 3.5918 21.5685 3.55174C21.5566 3.53081 21.5469 3.50901 21.5394 3.48666L20.8237 1.47904L20.1109 3.47848C20.0954 3.52871 20.0688 3.57642 20.0312 3.61794C19.9796 3.67481 19.9144 3.71201 19.845 3.72909C19.7764 3.74617 19.7022 3.74392 19.6307 3.7184C19.5779 3.69958 19.532 3.67006 19.4946 3.63315L17.4662 1.79291L17.804 3.81649C17.817 3.88425 17.8113 3.95641 17.7836 4.02516C17.7554 4.09493 17.7085 4.15152 17.651 4.19143C17.5764 4.24322 17.4839 4.26695 17.3914 4.25503C17.3574 4.25069 17.3246 4.24169 17.2938 4.2286L14.1237 2.95059L15.4547 4.87817C15.5714 5.04715 15.529 5.27873 15.36 5.39542C15.191 5.5121 14.9594 5.4697 14.8427 5.30072L12.8081 2.35405C12.7636 2.28964 12.7422 2.21612 12.7422 2.14334C12.7421 2.11163 12.7461 2.07954 12.7545 2.04782C12.7659 2.00481 12.7849 1.96371 12.8113 1.92679C12.9087 1.78988 13.0905 1.73222 13.2531 1.7978L16.9627 3.29332L16.5576 0.866241C16.5533 0.843444 16.5512 0.820307 16.5513 0.797155C16.5513 0.779955 16.5525 0.762951 16.5549 0.746237C16.5649 0.674883 16.5957 0.605672 16.6477 0.548287C16.739 0.44773 16.8727 0.40866 16.9968 0.433609C17.057 0.445723 17.115 0.472927 17.1647 0.515513C17.1683 0.518582 17.1719 0.521722 17.1754 0.524928L19.5926 2.71796L20.4734 0.247074C20.5275 0.0953278 20.6701 0.000524861 20.8224 2.65423e-06C20.8242 -4.11585e-06 20.826 2.07049e-06 20.8277 2.11533e-05Z" fill="#60FF96"/>
<path fill-rule="evenodd" clip-rule="evenodd" d="M20.6652 24.7482C20.8508 24.6603 21.0725 24.7396 21.1603 24.9252L24.5048 31.9933C24.5926 32.1789 24.5133 32.4006 24.3277 32.4884C24.1421 32.5762 23.9204 32.497 23.8325 32.3113L20.4881 25.2433C20.4003 25.0577 20.4796 24.836 20.6652 24.7482Z" fill="url(#paint1_radial_164_487)"/>
<path fill-rule="evenodd" clip-rule="evenodd" d="M26.1658 23.9363C26.3653 23.9848 26.4878 24.1859 26.4393 24.3854L24.5298 32.2403C24.4812 32.4398 24.2802 32.5623 24.0806 32.5137C23.8811 32.4652 23.7586 32.2642 23.8071 32.0646L25.7167 24.2097C25.7652 24.0102 25.9662 23.8878 26.1658 23.9363Z" fill="url(#paint2_radial_164_487)"/>
<path fill-rule="evenodd" clip-rule="evenodd" d="M30.9182 21.4671C31.1235 21.469 31.2885 21.637 31.2866 21.8423L31.2123 30.0293C31.2104 30.2346 31.0424 30.3996 30.8371 30.3977C30.6317 30.3959 30.4668 30.2279 30.4686 30.0225L30.543 21.8356C30.5449 21.6302 30.7128 21.4653 30.9182 21.4671Z" fill="url(#paint3_radial_164_487)"/>
<path fill-rule="evenodd" clip-rule="evenodd" d="M25.8402 24.0116C25.9981 23.8804 26.2325 23.902 26.3638 24.0599L31.1258 29.7884C31.2571 29.9463 31.2355 30.1808 31.0776 30.312C30.9196 30.4433 30.6852 30.4217 30.5539 30.2638L25.7919 24.5353C25.6607 24.3773 25.6823 24.1429 25.8402 24.0116Z" fill="url(#paint4_radial_164_487)"/>
<path fill-rule="evenodd" clip-rule="evenodd" d="M34.427 17.325C34.6275 17.2802 34.8262 17.4063 34.871 17.6067L36.6777 25.6908C36.7225 25.8913 36.5963 26.09 36.3959 26.1348C36.1955 26.1796 35.9967 26.0535 35.9519 25.853L34.1453 17.7689C34.1005 17.5685 34.2266 17.3697 34.427 17.325Z" fill="url(#paint5_radial_164_487)"/>
<path fill-rule="evenodd" clip-rule="evenodd" d="M30.6143 21.62C30.7352 21.454 30.9678 21.4175 31.1338 21.5384L36.5339 25.4714C36.6999 25.5923 36.7365 25.8249 36.6156 25.9909C36.4947 26.1569 36.2621 26.1934 36.0961 26.0725L30.696 22.1395C30.53 22.0186 30.4934 21.786 30.6143 21.62Z" fill="url(#paint6_radial_164_487)"/>
<path fill-rule="evenodd" clip-rule="evenodd" d="M34.1588 17.5604C34.2292 17.3675 34.4426 17.2681 34.6355 17.3385L39.7011 19.1861C39.8941 19.2564 39.9934 19.4699 39.9231 19.6628C39.8527 19.8557 39.6392 19.9551 39.4463 19.8847L34.3807 18.0372C34.1878 17.9668 34.0885 17.7533 34.1588 17.5604Z" fill="url(#paint7_radial_164_487)"/>
<path fill-rule="evenodd" clip-rule="evenodd" d="M35.5543 12.9456C35.7296 12.8386 35.9584 12.894 36.0654 13.0694L39.8918 19.3419C39.9988 19.5172 39.9433 19.746 39.768 19.8529C39.5927 19.9599 39.3639 19.9045 39.257 19.7291L35.4305 13.4566C35.3236 13.2813 35.379 13.0525 35.5543 12.9456Z" fill="url(#paint8_radial_164_487)"/>
<path fill-rule="evenodd" clip-rule="evenodd" d="M34.8568 8.85034C35.0054 8.70856 35.2408 8.71406 35.3825 8.86262L39.9934 13.694C40.1352 13.8426 40.1297 14.0779 39.9811 14.2197C39.8325 14.3615 39.5972 14.356 39.4554 14.2074L34.8446 9.37604C34.7028 9.22748 34.7083 8.99212 34.8568 8.85034Z" fill="url(#paint9_radial_164_487)"/>
<path fill-rule="evenodd" clip-rule="evenodd" d="M35.3815 13.1996C35.4165 12.9973 35.6089 12.8616 35.8113 12.8966L39.7889 13.5843C39.9913 13.6193 40.1269 13.8117 40.092 14.0141C40.057 14.2164 39.8646 14.3521 39.6622 14.3171L35.6846 13.6294C35.4822 13.5944 35.3466 13.402 35.3815 13.1996Z" fill="url(#paint10_radial_164_487)"/>
<path fill-rule="evenodd" clip-rule="evenodd" d="M36.6691 7.32149C36.8244 7.45585 36.8414 7.69067 36.707 7.84597L35.3947 9.36267C35.2604 9.51797 35.0256 9.53494 34.8703 9.40058C34.715 9.26621 34.698 9.03139 34.8324 8.8761L36.1446 7.35939C36.279 7.2041 36.5138 7.18713 36.6691 7.32149Z" fill="url(#paint11_radial_164_487)"/>
<path fill-rule="evenodd" clip-rule="evenodd" d="M32.1128 4.73639C32.2265 4.56536 32.4573 4.51884 32.6283 4.63249L36.6319 7.29291C36.803 7.40657 36.8495 7.63736 36.7358 7.80839C36.6222 7.97943 36.3914 8.02595 36.2204 7.9123L32.2167 5.25187C32.0457 5.13822 31.9992 4.90743 32.1128 4.73639Z" fill="url(#paint12_radial_164_487)"/>
<path fill-rule="evenodd" clip-rule="evenodd" d="M20.9835 24.7482C21.1691 24.836 21.2484 25.0577 21.1605 25.2433L17.8161 32.3113C17.7283 32.497 17.5066 32.5762 17.321 32.4884C17.1353 32.4006 17.0561 32.1789 17.1439 31.9933L20.4883 24.9252C20.5761 24.7396 20.7978 24.6603 20.9835 24.7482Z" fill="url(#paint13_radial_164_487)"/>
<path fill-rule="evenodd" clip-rule="evenodd" d="M15.4811 23.9363C15.6807 23.8877 15.8818 24.0101 15.9303 24.2097L17.841 32.0646C17.8896 32.2641 17.7672 32.4652 17.5676 32.5137C17.3681 32.5623 17.167 32.4399 17.1185 32.2403L15.2077 24.3855C15.1592 24.1859 15.2816 23.9848 15.4811 23.9363Z" fill="url(#paint14_radial_164_487)"/>
<path fill-rule="evenodd" clip-rule="evenodd" d="M10.731 21.4671C10.9364 21.4653 11.1043 21.6303 11.1062 21.8356L11.1793 30.0226C11.1811 30.2279 11.0161 30.3959 10.8108 30.3977C10.6054 30.3995 10.4375 30.2346 10.4357 30.0292L10.3625 21.8423C10.3607 21.6369 10.5257 21.469 10.731 21.4671Z" fill="url(#paint15_radial_164_487)"/>
<path fill-rule="evenodd" clip-rule="evenodd" d="M15.8069 24.0116C15.9648 24.1429 15.9864 24.3773 15.8551 24.5353L11.0931 30.2638C10.9619 30.4217 10.7274 30.4433 10.5695 30.312C10.4116 30.1807 10.39 29.9463 10.5213 29.7884L15.2833 24.0599C15.4145 23.902 15.649 23.8804 15.8069 24.0116Z" fill="url(#paint16_radial_164_487)"/>
<path fill-rule="evenodd" clip-rule="evenodd" d="M7.22072 17.3249C7.42114 17.3697 7.54733 17.5685 7.50257 17.7689L5.69715 25.853C5.65239 26.0534 5.45363 26.1796 5.25321 26.1348C5.05279 26.0901 4.9266 25.8913 4.97136 25.6909L6.77678 17.6068C6.82154 17.4064 7.0203 17.2802 7.22072 17.3249Z" fill="url(#paint17_radial_164_487)"/>
<path fill-rule="evenodd" clip-rule="evenodd" d="M11.035 21.62C11.1559 21.786 11.1193 22.0186 10.9533 22.1395L5.55316 26.0725C5.38716 26.1934 5.15459 26.1569 5.03369 25.9909C4.91279 25.8249 4.94935 25.5923 5.11535 25.4714L10.5155 21.5384C10.6815 21.4175 10.9141 21.454 11.035 21.62Z" fill="url(#paint18_radial_164_487)"/>
<path fill-rule="evenodd" clip-rule="evenodd" d="M7.48906 17.5604C7.55944 17.7533 7.4601 17.9668 7.26718 18.0371L2.20283 19.8847C2.00991 19.9551 1.79646 19.8557 1.72608 19.6628C1.6557 19.4699 1.75504 19.2564 1.94796 19.1861L7.01231 17.3385C7.20523 17.2681 7.41868 17.3675 7.48906 17.5604Z" fill="url(#paint19_radial_164_487)"/>
<path fill-rule="evenodd" clip-rule="evenodd" d="M6.0942 12.9455C6.26953 13.0525 6.32498 13.2813 6.21806 13.4566L2.39285 19.7291C2.28593 19.9044 2.05712 19.9599 1.8818 19.853C1.70647 19.746 1.65102 19.5172 1.75794 19.3419L5.58315 13.0694C5.69007 12.8941 5.91888 12.8386 6.0942 12.9455Z" fill="url(#paint20_radial_164_487)"/>
<path fill-rule="evenodd" clip-rule="evenodd" d="M6.79021 8.85034C6.93877 8.99212 6.94427 9.22748 6.80249 9.37604L2.19167 14.2074C2.04989 14.356 1.81452 14.3615 1.66596 14.2197C1.5174 14.0779 1.5119 13.8426 1.65368 13.694L6.2645 8.86262C6.40628 8.71406 6.64165 8.70856 6.79021 8.85034Z" fill="url(#paint21_radial_164_487)"/>
<path fill-rule="evenodd" clip-rule="evenodd" d="M6.26669 13.1996C6.30168 13.402 6.166 13.5944 5.96365 13.6294L1.98602 14.3171C1.78367 14.3521 1.59126 14.2164 1.55628 14.0141C1.52129 13.8117 1.65697 13.6193 1.85932 13.5843L5.83695 12.8966C6.0393 12.8616 6.23171 12.9973 6.26669 13.1996Z" fill="url(#paint22_radial_164_487)"/>
<path fill-rule="evenodd" clip-rule="evenodd" d="M4.97741 7.32149C5.1327 7.18713 5.36752 7.2041 5.50189 7.3594L6.81413 8.8761C6.94849 9.03139 6.93152 9.26621 6.77622 9.40058C6.62093 9.53494 6.38611 9.51797 6.25174 9.36267L4.9395 7.84597C4.80514 7.69067 4.82211 7.45585 4.97741 7.32149Z" fill="url(#paint23_radial_164_487)"/>
<path fill-rule="evenodd" clip-rule="evenodd" d="M9.53403 4.73639C9.64769 4.90743 9.60117 5.13822 9.43013 5.25187L5.42648 7.9123C5.25545 8.02595 5.02466 7.97943 4.911 7.80839C4.79735 7.63736 4.84386 7.40657 5.0149 7.29291L9.01855 4.63249C9.18959 4.51884 9.42038 4.56536 9.53403 4.73639Z" fill="url(#paint24_radial_164_487)"/>
<path d="M4.79152 33.135C4.5863 33.1276 4.41392 33.2879 4.4065 33.4932C4.39908 33.6984 4.55943 33.8708 4.76465 33.8782L6.43974 33.9387L7.55673 36.8121C7.63113 37.0035 7.84661 37.0984 8.03801 37.024C8.22942 36.9496 8.32426 36.7341 8.24986 36.5427L7.04418 33.4411C6.98706 33.2942 6.84678 33.2042 6.69809 33.2039L4.79152 33.135Z" fill="#256EFA"/>
<path d="M37.2358 33.4932C37.2433 33.6984 37.0829 33.8708 36.8777 33.8782L35.2017 33.9387L34.0847 36.8121C34.0103 37.0035 33.7948 37.0984 33.6034 37.024C33.412 36.9496 33.3172 36.7341 33.3916 36.5427L34.592 33.4546C34.6071 33.4111 34.63 33.3712 34.6591 33.3366C34.6724 33.3207 34.687 33.3061 34.7026 33.2928C34.7693 33.2361 34.8546 33.2042 34.943 33.2039L36.8508 33.135C37.056 33.1276 37.2284 33.288 37.2358 33.4932Z" fill="#256EFA"/>
<path d="M28.3842 36.9036C28.3625 36.886 28.3386 36.8706 28.3125 36.8578C28.2741 36.839 28.2334 36.8273 28.1923 36.8225C28.1735 36.8203 28.1546 36.8196 28.1359 36.8203C28.0282 36.8241 27.9231 36.8745 27.8529 36.967C27.8315 36.9952 27.8147 37.0254 27.8024 37.0568L26.3807 40.2591C26.2974 40.4468 26.382 40.6665 26.5697 40.7498C26.7574 40.8332 26.9771 40.7486 27.0604 40.5609L28.2984 37.7723L30.1706 39.1943C30.3342 39.3185 30.5674 39.2866 30.6916 39.1231C30.8158 38.9595 30.784 38.7263 30.6204 38.6021L28.3842 36.9036Z" fill="#256EFA"/>
<path d="M20.8231 39.0314L19.3523 41.3278C19.2415 41.5007 19.0115 41.5511 18.8386 41.4403C18.6657 41.3295 18.6153 41.0996 18.726 40.9266L20.5079 38.1448C20.5571 38.068 20.6298 38.0154 20.7106 37.9903C20.7464 37.9791 20.7834 37.9736 20.8201 37.9735C20.8565 37.9733 20.8931 37.9786 20.9288 37.9894C21.0101 38.0139 21.0834 38.0662 21.1333 38.143L22.9796 40.9893C23.0913 41.1616 23.0423 41.3918 22.87 41.5036C22.6977 41.6153 22.4674 41.5663 22.3557 41.394L20.8231 39.0314Z" fill="#256EFA"/>
<path d="M13.4475 36.8226C13.4039 36.8278 13.3608 36.8408 13.3203 36.8619C13.2976 36.8736 13.2766 36.8874 13.2574 36.903L11.0203 38.6021C10.8568 38.7263 10.8249 38.9595 10.9491 39.1231C11.0733 39.2866 11.3066 39.3185 11.4701 39.1943L13.3405 37.7736L14.519 40.4614C14.6014 40.6495 14.8207 40.7351 15.0088 40.6526C15.1969 40.5702 15.2825 40.3509 15.2001 40.1628L13.8385 37.0574C13.8262 37.0258 13.8094 36.9953 13.7879 36.967C13.7136 36.8692 13.6005 36.8185 13.4865 36.8201C13.4735 36.8202 13.4605 36.8211 13.4475 36.8226Z" fill="#256EFA"/>
<path d="M21.9543 3.00169C22.1566 3.03701 22.292 3.22963 22.2567 3.43193L21.5296 7.5969L23.8881 3.69349C23.9943 3.51773 24.2229 3.46133 24.3986 3.56753C24.5744 3.67373 24.6308 3.90231 24.5246 4.07807L22.1738 7.96882L26.2684 4.79522C26.4307 4.66942 26.6643 4.69901 26.7901 4.86133C26.9159 5.02364 26.8863 5.2572 26.724 5.383L22.7489 8.46391L28.228 6.66764C28.4232 6.60367 28.6332 6.71 28.6972 6.90513C28.7612 7.10027 28.6548 7.31032 28.4597 7.3743L23.2131 9.09433L29.2501 9.04198C29.4554 9.0402 29.6233 9.20523 29.6251 9.41058C29.6269 9.61593 29.4618 9.78384 29.2565 9.78562L23.3224 9.83707L29.1963 11.5712C29.3933 11.6293 29.5058 11.8361 29.4477 12.0331C29.3895 12.23 29.1827 12.3426 28.9858 12.2844L22.9077 10.49L27.962 14.0217C28.1303 14.1393 28.1714 14.3712 28.0538 14.5395C27.9362 14.7078 27.7044 14.7489 27.536 14.6313L22.1902 10.8959L25.5545 16.031C25.667 16.2028 25.619 16.4333 25.4472 16.5458C25.2755 16.6584 25.045 16.6103 24.9325 16.4386L21.5588 11.2892L22.702 17.066C22.7418 17.2674 22.6108 17.463 22.4094 17.5029C22.2079 17.5428 22.0123 17.4118 21.9725 17.2103L20.8228 11.4007L19.6721 17.2106C19.6322 17.412 19.4365 17.543 19.2351 17.5031C19.0337 17.4632 18.9027 17.2675 18.9426 17.0661L20.0874 11.2859L16.7105 16.4388C16.5979 16.6105 16.3674 16.6585 16.1957 16.546C16.0239 16.4334 15.9759 16.2029 16.0885 16.0312L19.4525 10.898L14.1084 14.6315C13.94 14.7491 13.7082 14.708 13.5906 14.5396C13.473 14.3713 13.5141 14.1395 13.6825 14.0219L18.7386 10.4896L12.6579 12.2844C12.461 12.3426 12.2542 12.23 12.1961 12.0331C12.1379 11.8361 12.2505 11.6293 12.4474 11.5712L18.3223 9.83707L12.3881 9.78562C12.1828 9.78384 12.0178 9.61593 12.0195 9.41058C12.0213 9.20523 12.1892 9.0402 12.3946 9.04198L18.4314 9.09433L13.1849 7.3743C12.9897 7.31032 12.8834 7.10027 12.9474 6.90513C13.0114 6.71 13.2214 6.60367 13.4165 6.66764L18.8955 8.46389L14.9197 5.38303C14.7574 5.25724 14.7277 5.02368 14.8535 4.86136C14.9793 4.69903 15.2129 4.66941 15.3752 4.79519L19.4706 7.96872L17.1191 4.07812C17.0128 3.90237 17.0692 3.67379 17.2449 3.56756C17.4207 3.46134 17.6493 3.5177 17.7555 3.69344L20.1157 7.59832L19.3884 3.43193C19.3531 3.22963 19.4885 3.03701 19.6908 3.00169C19.893 2.96638 20.0857 3.10175 20.121 3.30404L20.8225 7.32293L21.5241 3.30404C21.5594 3.10175 21.752 2.96638 21.9543 3.00169Z" fill="#60FF96"/>
<path fill-rule="evenodd" clip-rule="evenodd" d="M20.8224 3.68507C16.2553 3.68507 12.6851 6.70416 12.6851 10.2809C12.6851 13.8576 16.2553 16.8767 20.8224 16.8767C25.3894 16.8767 28.9597 13.8576 28.9597 10.2809C28.9597 6.70416 25.3894 3.68507 20.8224 3.68507ZM11.9414 10.2809C11.9414 6.16137 15.9905 2.94141 20.8224 2.94141C25.6543 2.94141 29.7034 6.16137 29.7034 10.2809C29.7034 14.4004 25.6543 17.6204 20.8224 17.6204C15.9905 17.6204 11.9414 14.4004 11.9414 10.2809Z" fill="#60FF96"/>
<path fill-rule="evenodd" clip-rule="evenodd" d="M20.8213 0.743661C12.7076 0.743661 6.25538 6.17182 6.25538 12.7272C6.25538 19.2827 12.7076 24.7108 20.8213 24.7108C28.935 24.7108 35.3873 19.2827 35.3873 12.7272C35.3873 6.17182 28.935 0.743661 20.8213 0.743661ZM5.51172 12.7272C5.51172 5.63525 12.4352 0 20.8213 0C29.2074 0 36.1309 5.63525 36.1309 12.7272C36.1309 19.8192 29.2074 25.4545 20.8213 25.4545C12.4352 25.4545 5.51172 19.8192 5.51172 12.7272Z" fill="#22CFF4"/>
<path d="M41.3411 18.7722C41.5104 18.6561 41.5535 18.4246 41.4373 18.2553C41.3212 18.0859 41.0897 18.0428 40.9204 18.159L39.3681 19.2239C39.3533 19.2336 39.3393 19.2443 39.3261 19.2559C39.2882 19.2893 39.2584 19.3291 39.2374 19.3725C39.2132 19.422 39.1999 19.4774 39.2 19.5354C39.2 19.5495 39.2008 19.5637 39.2024 19.5778L39.8769 26.5379L36.4293 25.4187C36.6085 25.4778 36.5754 25.5776 36.5311 25.7112C36.5221 25.7381 36.5127 25.7664 36.5046 25.7961L36.4222 25.4164C36.4074 25.4119 36.3922 25.4082 36.3766 25.4055C36.1743 25.37 35.9816 25.5052 35.9461 25.7075L34.6913 32.8647L31.0956 29.7572C31.0602 29.7233 31.0175 29.6958 30.9688 29.6775C30.9257 29.6613 30.8814 29.6537 30.8379 29.6537C30.7335 29.6536 30.6297 29.6973 30.5561 29.7824C30.5209 29.8232 30.496 29.8695 30.4814 29.9181L28.0336 36.4434L24.4674 31.9333C24.4357 31.8895 24.3939 31.8521 24.3432 31.8247C24.2608 31.7802 24.169 31.77 24.0843 31.7892C24.0522 31.7964 24.0208 31.808 23.9909 31.8241C23.9566 31.8424 23.925 31.8661 23.8975 31.8949C23.8713 31.9224 23.8499 31.9531 23.8335 31.9858L20.8222 37.5612L17.8116 31.9873C17.7879 31.9392 17.7534 31.8954 17.7086 31.86C17.6033 31.7767 17.4668 31.7595 17.3494 31.8027C17.3178 31.8143 17.2875 31.8302 17.2596 31.8505C17.2282 31.8732 17.2011 31.9002 17.1789 31.9303L13.6097 36.4428L11.1589 29.9094C11.144 29.8639 11.12 29.8205 11.0868 29.7821C11.0363 29.7237 10.9717 29.6848 10.9024 29.6662C10.8297 29.6464 10.7504 29.6485 10.6746 29.677C10.6268 29.6949 10.5849 29.7216 10.55 29.7545L6.9521 32.8639L5.69849 25.707C5.66685 25.5264 5.50982 25.3992 5.33254 25.3993C5.29429 25.3992 5.25539 25.4051 5.21705 25.4175L1.76782 26.5373L2.44196 19.5807C2.45189 19.5003 2.43526 19.4184 2.39466 19.3483C2.38254 19.3273 2.36829 19.3074 2.35196 19.2889C2.32833 19.2621 2.30083 19.2386 2.27021 19.2194L0.82964 18.2488C0.659335 18.134 0.428252 18.179 0.313503 18.3494C0.198754 18.5197 0.243792 18.7507 0.414097 18.8655L1.68138 19.7194L0.973248 27.0267C0.971818 27.0401 0.971109 27.0536 0.971149 27.0671C0.971259 27.1349 0.989789 27.199 1.02236 27.2544C1.04244 27.2887 1.06758 27.3189 1.09646 27.3445C1.14006 27.3831 1.19302 27.4119 1.25208 27.4267C1.29924 27.4386 1.34916 27.4414 1.39917 27.4337C1.42125 27.4304 1.44276 27.4251 1.4635 27.4179L5.03983 26.2569L6.33117 33.6292C6.34119 33.6965 6.36981 33.7619 6.41762 33.8172C6.47447 33.883 6.54933 33.924 6.62856 33.9392C6.64608 33.9426 6.66396 33.9447 6.68209 33.9455C6.75313 33.9488 6.82521 33.9317 6.88892 33.8938C6.90925 33.8817 6.92825 33.8678 6.9457 33.8523L10.6446 30.6557L13.1419 37.313C13.1644 37.3773 13.2048 37.4362 13.2622 37.4816C13.4233 37.609 13.6571 37.5817 13.7845 37.4206L17.4191 32.8254L20.4889 38.509C20.5218 38.5756 20.575 38.633 20.6453 38.671C20.802 38.7556 20.9923 38.7162 21.1038 38.5866C21.123 38.5643 21.1393 38.5401 21.1525 38.5144L24.2251 32.8258L27.8584 37.4209C27.9145 37.4918 27.9911 37.5367 28.073 37.5541C28.2502 37.592 28.4331 37.4956 28.4986 37.3209L30.9987 30.6564L34.7008 33.8558C34.7562 33.9037 34.8217 33.9323 34.8892 33.9423C35.0881 33.9722 35.2757 33.838 35.3106 33.6388L36.6047 26.2575L40.1866 27.4203C40.2695 27.4472 40.355 27.4434 40.4308 27.4153C40.5854 27.3582 40.6885 27.2024 40.6718 27.0306L39.9631 19.7175L41.3411 18.7722Z" fill="url(#paint25_radial_164_487)"/>
<path fill-rule="evenodd" clip-rule="evenodd" d="M2.71455 11.2095C2.90672 11.2819 3.00381 11.4964 2.93142 11.6886C2.37298 13.1709 2.07179 14.7486 2.07179 16.3839C2.07179 24.9632 10.4008 32.0242 20.8198 32.0242C31.2389 32.0242 39.5679 24.9632 39.5679 16.3839C39.5679 14.7715 39.2751 13.2155 38.7312 11.7514C38.6597 11.5589 38.7577 11.3449 38.9502 11.2734C39.1427 11.2018 39.3568 11.2999 39.4283 11.4924C40.0021 13.0369 40.3115 14.6804 40.3115 16.3839C40.3115 25.492 31.5206 32.7678 20.8198 32.7678C10.1191 32.7678 1.32812 25.492 1.32812 16.3839C1.32812 14.6562 1.6465 12.9898 2.2355 11.4264C2.3079 11.2342 2.52237 11.1371 2.71455 11.2095Z" fill="#1EAAFD"/>
<path fill-rule="evenodd" clip-rule="evenodd" d="M20.8225 0.743661C9.73328 0.743661 0.743662 9.73327 0.743662 20.8225C0.743662 31.9118 9.73328 40.9014 20.8225 40.9014C31.9118 40.9014 40.9014 31.9118 40.9014 20.8225C40.9014 9.73327 31.9118 0.743661 20.8225 0.743661ZM0 20.8225C0 9.32255 9.32256 0 20.8225 0C32.3225 0 41.6451 9.32255 41.6451 20.8225C41.6451 32.3225 32.3225 41.645 20.8225 41.645C9.32256 41.645 0 32.3225 0 20.8225Z" fill="url(#paint26_linear_164_487)"/>
<path fill-rule="evenodd" clip-rule="evenodd" d="M1.17848 26.7365C1.36221 26.6448 1.58552 26.7194 1.67724 26.9031C4.92617 33.4106 12.2649 37.9735 20.8238 37.9735C29.3827 37.9735 36.7214 33.4094 39.9703 26.9031C40.0621 26.7193 40.2854 26.6448 40.4691 26.7365C40.6528 26.8283 40.7274 27.0516 40.6357 27.2353C37.2503 34.0149 29.6401 38.7171 20.8238 38.7171C12.0075 38.7171 4.3973 34.0162 1.01189 27.2353C0.920165 27.0515 0.994748 26.8282 1.17848 26.7365Z" fill="#218CFC"/>
<defs>
<radialGradient id="paint0_radial_164_487" cx="0" cy="0" r="1" gradientUnits="userSpaceOnUse" gradientTransform="translate(20.823 7.99522) rotate(90) scale(17.4613 18.4931)">
<stop offset="0.543082" stop-color="#60FF96"/>
<stop offset="1" stop-color="#1AC8FF"/>
</radialGradient>
<radialGradient id="paint1_radial_164_487" cx="0" cy="0" r="1" gradientUnits="userSpaceOnUse" gradientTransform="translate(20.8241 9.15421) rotate(90) scale(23.3702 23.3024)">
<stop offset="0.395971" stop-color="#60FF96"/>
<stop offset="0.836394" stop-color="#1AC8FF"/>
</radialGradient>
<radialGradient id="paint2_radial_164_487" cx="0" cy="0" r="1" gradientUnits="userSpaceOnUse" gradientTransform="translate(20.8241 9.15421) rotate(90) scale(23.3702 23.3024)">
<stop offset="0.395971" stop-color="#60FF96"/>
<stop offset="0.836394" stop-color="#1AC8FF"/>
</radialGradient>
<radialGradient id="paint3_radial_164_487" cx="0" cy="0" r="1" gradientUnits="userSpaceOnUse" gradientTransform="translate(20.8241 9.15421) rotate(90) scale(23.3702 23.3024)">
<stop offset="0.395971" stop-color="#60FF96"/>
<stop offset="0.836394" stop-color="#1AC8FF"/>
</radialGradient>
<radialGradient id="paint4_radial_164_487" cx="0" cy="0" r="1" gradientUnits="userSpaceOnUse" gradientTransform="translate(20.8241 9.15421) rotate(90) scale(23.3702 23.3024)">
<stop offset="0.395971" stop-color="#60FF96"/>
<stop offset="0.836394" stop-color="#1AC8FF"/>
</radialGradient>
<radialGradient id="paint5_radial_164_487" cx="0" cy="0" r="1" gradientUnits="userSpaceOnUse" gradientTransform="translate(20.8241 9.15421) rotate(90) scale(23.3702 23.3024)">
<stop offset="0.395971" stop-color="#60FF96"/>
<stop offset="0.836394" stop-color="#1AC8FF"/>
</radialGradient>
<radialGradient id="paint6_radial_164_487" cx="0" cy="0" r="1" gradientUnits="userSpaceOnUse" gradientTransform="translate(20.8241 9.15421) rotate(90) scale(23.3702 23.3024)">
<stop offset="0.395971" stop-color="#60FF96"/>
<stop offset="0.836394" stop-color="#1AC8FF"/>
</radialGradient>
<radialGradient id="paint7_radial_164_487" cx="0" cy="0" r="1" gradientUnits="userSpaceOnUse" gradientTransform="translate(20.8241 9.15421) rotate(90) scale(23.3702 23.3024)">
<stop offset="0.395971" stop-color="#60FF96"/>
<stop offset="0.836394" stop-color="#1AC8FF"/>
</radialGradient>
<radialGradient id="paint8_radial_164_487" cx="0" cy="0" r="1" gradientUnits="userSpaceOnUse" gradientTransform="translate(20.8241 9.15421) rotate(90) scale(23.3702 23.3024)">
<stop offset="0.395971" stop-color="#60FF96"/>
<stop offset="0.836394" stop-color="#1AC8FF"/>
</radialGradient>
<radialGradient id="paint9_radial_164_487" cx="0" cy="0" r="1" gradientUnits="userSpaceOnUse" gradientTransform="translate(20.8241 9.15421) rotate(90) scale(23.3702 23.3024)">
<stop offset="0.395971" stop-color="#60FF96"/>
<stop offset="0.836394" stop-color="#1AC8FF"/>
</radialGradient>
<radialGradient id="paint10_radial_164_487" cx="0" cy="0" r="1" gradientUnits="userSpaceOnUse" gradientTransform="translate(20.8241 9.15421) rotate(90) scale(23.3702 23.3024)">
<stop offset="0.395971" stop-color="#60FF96"/>
<stop offset="0.836394" stop-color="#1AC8FF"/>
</radialGradient>
<radialGradient id="paint11_radial_164_487" cx="0" cy="0" r="1" gradientUnits="userSpaceOnUse" gradientTransform="translate(20.8241 9.15421) rotate(90) scale(23.3702 23.3024)">
<stop offset="0.395971" stop-color="#60FF96"/>
<stop offset="0.836394" stop-color="#1AC8FF"/>
</radialGradient>
<radialGradient id="paint12_radial_164_487" cx="0" cy="0" r="1" gradientUnits="userSpaceOnUse" gradientTransform="translate(20.8241 9.15421) rotate(90) scale(23.3702 23.3024)">
<stop offset="0.395971" stop-color="#60FF96"/>
<stop offset="0.836394" stop-color="#1AC8FF"/>
</radialGradient>
<radialGradient id="paint13_radial_164_487" cx="0" cy="0" r="1" gradientUnits="userSpaceOnUse" gradientTransform="translate(20.8241 9.15421) rotate(90) scale(23.3702 23.3024)">
<stop offset="0.395971" stop-color="#60FF96"/>
<stop offset="0.836394" stop-color="#1AC8FF"/>
</radialGradient>
<radialGradient id="paint14_radial_164_487" cx="0" cy="0" r="1" gradientUnits="userSpaceOnUse" gradientTransform="translate(20.8241 9.15421) rotate(90) scale(23.3702 23.3024)">
<stop offset="0.395971" stop-color="#60FF96"/>
<stop offset="0.836394" stop-color="#1AC8FF"/>
</radialGradient>
<radialGradient id="paint15_radial_164_487" cx="0" cy="0" r="1" gradientUnits="userSpaceOnUse" gradientTransform="translate(20.8241 9.15421) rotate(90) scale(23.3702 23.3024)">
<stop offset="0.395971" stop-color="#60FF96"/>
<stop offset="0.836394" stop-color="#1AC8FF"/>
</radialGradient>
<radialGradient id="paint16_radial_164_487" cx="0" cy="0" r="1" gradientUnits="userSpaceOnUse" gradientTransform="translate(20.8241 9.15421) rotate(90) scale(23.3702 23.3024)">
<stop offset="0.395971" stop-color="#60FF96"/>
<stop offset="0.836394" stop-color="#1AC8FF"/>
</radialGradient>
<radialGradient id="paint17_radial_164_487" cx="0" cy="0" r="1" gradientUnits="userSpaceOnUse" gradientTransform="translate(20.8241 9.15421) rotate(90) scale(23.3702 23.3024)">
<stop offset="0.395971" stop-color="#60FF96"/>
<stop offset="0.836394" stop-color="#1AC8FF"/>
</radialGradient>
<radialGradient id="paint18_radial_164_487" cx="0" cy="0" r="1" gradientUnits="userSpaceOnUse" gradientTransform="translate(20.8241 9.15421) rotate(90) scale(23.3702 23.3024)">
<stop offset="0.395971" stop-color="#60FF96"/>
<stop offset="0.836394" stop-color="#1AC8FF"/>
</radialGradient>
<radialGradient id="paint19_radial_164_487" cx="0" cy="0" r="1" gradientUnits="userSpaceOnUse" gradientTransform="translate(20.8241 9.15421) rotate(90) scale(23.3702 23.3024)">
<stop offset="0.395971" stop-color="#60FF96"/>
<stop offset="0.836394" stop-color="#1AC8FF"/>
</radialGradient>
<radialGradient id="paint20_radial_164_487" cx="0" cy="0" r="1" gradientUnits="userSpaceOnUse" gradientTransform="translate(20.8241 9.15421) rotate(90) scale(23.3702 23.3024)">
<stop offset="0.395971" stop-color="#60FF96"/>
<stop offset="0.836394" stop-color="#1AC8FF"/>
</radialGradient>
<radialGradient id="paint21_radial_164_487" cx="0" cy="0" r="1" gradientUnits="userSpaceOnUse" gradientTransform="translate(20.8241 9.15421) rotate(90) scale(23.3702 23.3024)">
<stop offset="0.395971" stop-color="#60FF96"/>
<stop offset="0.836394" stop-color="#1AC8FF"/>
</radialGradient>
<radialGradient id="paint22_radial_164_487" cx="0" cy="0" r="1" gradientUnits="userSpaceOnUse" gradientTransform="translate(20.8241 9.15421) rotate(90) scale(23.3702 23.3024)">
<stop offset="0.395971" stop-color="#60FF96"/>
<stop offset="0.836394" stop-color="#1AC8FF"/>
</radialGradient>
<radialGradient id="paint23_radial_164_487" cx="0" cy="0" r="1" gradientUnits="userSpaceOnUse" gradientTransform="translate(20.8241 9.15421) rotate(90) scale(23.3702 23.3024)">
<stop offset="0.395971" stop-color="#60FF96"/>
<stop offset="0.836394" stop-color="#1AC8FF"/>
</radialGradient>
<radialGradient id="paint24_radial_164_487" cx="0" cy="0" r="1" gradientUnits="userSpaceOnUse" gradientTransform="translate(20.8241 9.15421) rotate(90) scale(23.3702 23.3024)">
<stop offset="0.395971" stop-color="#60FF96"/>
<stop offset="0.836394" stop-color="#1AC8FF"/>
</radialGradient>
<radialGradient id="paint25_radial_164_487" cx="0" cy="0" r="1" gradientUnits="userSpaceOnUse" gradientTransform="translate(20.8763 21.4753) rotate(90) scale(18.6824 27.0241)">
<stop offset="0.658326" stop-color="#1BC9FF"/>
<stop offset="1" stop-color="#218CFC"/>
</radialGradient>
<linearGradient id="paint26_linear_164_487" x1="20.8225" y1="0" x2="20.8225" y2="41.645" gradientUnits="userSpaceOnUse">
<stop stop-color="#22CFF4"/>
<stop offset="1" stop-color="#256EFA"/>
</linearGradient>
</defs>
</svg>
